<svg xmlns="http://www.w3.org/2000/svg" width="100" height="100">
    <path d="M0 0h100v100H0z" style="fill:#e3000b"/>
    <defs>
        <path id="l" d="M 7.627 51.813 Q 4.667 51.973 3.067 51.133 A 5.885 5.885 0 0 1 1.843 50.291 A 4.568 4.568 0 0 1 0.787 48.893 Q 0.107 47.493 0.027 46.013 Q -0.028 44.996 0.03 44.148 A 10.133 10.133 0 0 1 0.107 43.413 Q 0.725 39.426 1.226 36.206 A 16022.252 16022.252 0 0 1 1.387 35.173 Q 1.947 31.573 2.467 28.413 Q 2.987 25.253 3.667 21.973 Q 4.347 18.693 5.307 14.773 Q 6.267 10.853 7.707 5.733 L 8.027 4.813 A 4.761 4.761 0 0 1 8.322 4.148 Q 8.677 3.481 9.307 2.693 A 6.574 6.574 0 0 1 10.541 1.52 Q 11.14 1.077 11.887 0.703 A 11.016 11.016 0 0 1 11.987 0.653 Q 13.599 -0.134 16.091 0.028 A 14.538 14.538 0 0 1 16.427 0.053 Q 18.907 0.213 20.187 1.293 Q 21.431 2.343 21.882 3.582 A 4.275 4.275 0 0 1 21.907 3.653 Q 22.244 4.633 22.323 5.426 A 4.719 4.719 0 0 1 22.347 5.893 L 22.347 6.853 Q 20.267 16.613 18.507 24.413 Q 16.747 32.213 15.707 38.613 A 115.616 115.616 0 0 0 18.027 38.326 Q 19.434 38.136 20.627 37.933 Q 22.747 37.573 24.947 37.093 Q 27.147 36.613 30.107 36.133 L 30.907 36.093 A 8.086 8.086 0 0 1 31.195 36.084 Q 31.766 36.076 32.524 36.136 A 24.086 24.086 0 0 1 32.947 36.173 Q 34.187 36.293 35.387 36.693 Q 36.587 37.093 37.507 37.973 A 3.144 3.144 0 0 1 38.385 39.527 A 4.5 4.5 0 0 1 38.507 40.373 A 13.324 13.324 0 0 1 38.538 41.108 Q 38.561 42.86 38.079 44.157 A 5.962 5.962 0 0 1 38.027 44.293 A 9.321 9.321 0 0 1 37.418 45.55 Q 37.03 46.211 36.563 46.712 A 5.532 5.532 0 0 1 36.427 46.853 Q 35.477 47.803 34.763 48.244 A 4.503 4.503 0 0 1 34.747 48.253 L 34.027 48.693 Q 29.947 49.413 26.587 50.053 Q 23.227 50.693 20.227 51.133 Q 17.227 51.573 14.147 51.773 Q 12.436 51.884 10.613 51.884 A 64.303 64.303 0 0 1 7.627 51.813 Z"/>
        <path id="v" d="M 9.772 50.915 A 19.307 19.307 0 0 0 12.997 51.766 A 6.156 6.156 0 0 0 14.641 51.984 Q 16.297 51.984 18.197 51.166 A 13.165 13.165 0 0 0 19.877 50.286 Q 20.974 49.612 22.115 48.66 A 28.972 28.972 0 0 0 24.277 46.646 A 34.301 34.301 0 0 0 25.657 45.141 Q 28.19 42.215 30.797 38.006 A 75.864 75.864 0 0 0 31.497 36.853 Q 34.467 31.862 37.437 25.206 A 138.267 138.267 0 0 0 40.699 17.193 A 189.967 189.967 0 0 0 43.797 8.166 L 43.957 7.126 A 3.989 3.989 0 0 0 43.974 7 Q 44.095 6.002 43.757 4.686 A 4.334 4.334 0 0 0 43.714 4.53 Q 43.323 3.217 42.077 2.046 Q 41.128 1.155 39.291 0.656 A 14.894 14.894 0 0 0 37.717 0.326 A 13.044 13.044 0 0 0 36.909 0.225 Q 34.878 0.036 33.437 0.606 A 11.031 11.031 0 0 0 33.173 0.715 Q 31.639 1.368 30.717 2.326 A 11.1 11.1 0 0 0 30.215 2.883 Q 29.608 3.607 29.317 4.246 L 28.917 5.126 Q 27.637 9.526 26.077 13.526 Q 24.517 17.526 22.957 20.966 A 188.366 188.366 0 0 1 22.751 21.42 Q 21.307 24.582 20.037 27.046 A 243.757 243.757 0 0 1 19.755 27.591 Q 18.584 29.851 17.797 31.246 A 114.742 114.742 0 0 1 17.686 31.442 Q 17.059 32.549 16.789 32.963 A 3.151 3.151 0 0 1 16.677 33.126 Q 16.517 31.846 16.357 30.406 Q 16.257 29.506 16.157 28.388 A 153.409 153.409 0 0 1 16.037 26.966 A 95.035 95.035 0 0 1 15.941 25.642 Q 15.839 24.104 15.757 22.206 Q 15.637 19.446 15.557 15.566 A 327.959 327.959 0 0 1 15.515 13.012 Q 15.498 11.671 15.488 10.201 A 583.632 583.632 0 0 1 15.477 6.486 L 15.357 5.486 A 4.982 4.982 0 0 0 15.249 4.901 Q 15.058 4.116 14.597 3.166 A 5.085 5.085 0 0 0 13.611 1.795 A 6.859 6.859 0 0 0 12.477 0.886 A 4.63 4.63 0 0 0 11.6 0.446 Q 10.427 0 8.756 0 A 13.185 13.185 0 0 0 8.357 0.006 A 13.647 13.647 0 0 0 7.182 0.091 Q 6.368 0.188 5.684 0.383 A 6.192 6.192 0 0 0 4.277 0.966 A 10.531 10.531 0 0 0 4.067 1.091 Q 2.701 1.925 1.957 2.966 A 11.484 11.484 0 0 0 1.558 3.561 Q 1.08 4.327 0.877 4.966 L 0.597 5.846 Q 0.277 14.326 0.077 21.206 A 186.668 186.668 0 0 0 0.019 23.796 Q -0.031 27.09 0.049 30.004 A 107.196 107.196 0 0 0 0.197 33.446 A 49.764 49.764 0 0 0 0.309 34.946 Q 0.705 39.349 1.837 42.606 A 16.445 16.445 0 0 0 2.687 44.624 A 12.875 12.875 0 0 0 5.837 48.686 A 11.086 11.086 0 0 0 6.583 49.268 Q 7.974 50.259 9.772 50.915 Z"/>
        <g id="lv">
            <use href="#l" />
            <use href="#v" transform="translate(38, 0)" />
        </g>
    </defs>
    <g style="stroke:#ffed00;stroke-width:10;fill:none" transform="translate(14,27) scale(0.9)">
        <use href="#lv" />
    </g>
    <g style="stroke:#000;stroke-width:4;fill:#fff" transform="translate(14,27) scale(0.9)">
        <use href="#lv" />
    </g>
</svg>