<svg xmlns="http://www.w3.org/2000/svg" width="88" height="31">
    <path d="M0 0h300v100H0z" style="fill:#e3000b"/>
    <defs>
        <!-- Sour Gummy 800 italic -->
        <path id="l" d="M 6.499 52.345 Q 4.87 52.377 3.739 52.039 A 4.71 4.71 0 0 1 2.931 51.72 A 5.663 5.663 0 0 1 1.832 50.993 A 4.208 4.208 0 0 1 0.811 49.72 Q 0.171 48.48 0.051 47.12 Q -0.069 45.76 0.091 44.72 A 2230.696 2230.696 0 0 0 0.751 40.441 Q 1.062 38.413 1.335 36.601 A 1334.31 1334.31 0 0 0 1.371 36.36 Q 1.931 32.64 2.491 29.24 Q 3.051 25.84 3.771 22.36 Q 4.491 18.88 5.491 14.84 A 246.449 246.449 0 0 1 6.451 11.098 Q 6.954 9.195 7.535 7.099 A 411.79 411.79 0 0 1 7.931 5.68 L 8.211 4.84 Q 8.402 4.269 8.869 3.587 A 10.136 10.136 0 0 1 9.371 2.92 A 6.075 6.075 0 0 1 10.498 1.863 Q 11.044 1.463 11.721 1.125 A 10.162 10.162 0 0 1 11.811 1.08 A 5.787 5.787 0 0 1 13.158 0.629 Q 14.248 0.4 15.638 0.468 A 14.017 14.017 0 0 1 15.851 0.48 Q 18.091 0.64 19.251 1.64 A 6.341 6.341 0 0 1 20.069 2.479 Q 20.527 3.052 20.765 3.671 A 3.935 3.935 0 0 1 20.811 3.8 A 8.396 8.396 0 0 1 21.07 4.703 Q 21.174 5.166 21.201 5.584 A 4.507 4.507 0 0 1 21.211 5.88 L 21.211 6.8 Q 18.971 16.64 17.131 24.92 Q 15.291 33.2 14.171 40.4 Q 17.268 40.013 19.766 39.663 A 273.407 273.407 0 0 0 19.931 39.64 Q 22.491 39.28 25.011 38.76 Q 27.531 38.24 30.651 37.68 L 31.371 37.64 Q 32.091 37.6 33.211 37.72 Q 34.331 37.84 35.411 38.2 Q 36.491 38.56 37.331 39.36 A 2.835 2.835 0 0 1 38.094 40.643 Q 38.222 41.079 38.251 41.598 A 4.912 4.912 0 0 1 38.251 41.6 Q 38.411 43.68 37.811 45.12 Q 37.243 46.484 36.423 47.346 A 5.282 5.282 0 0 1 36.331 47.44 Q 35.492 48.28 34.87 48.682 A 4.244 4.244 0 0 1 34.811 48.72 L 34.171 49.12 Q 30.091 49.84 26.651 50.48 A 159.594 159.594 0 0 1 22.073 51.265 A 136.238 136.238 0 0 1 20.091 51.56 Q 16.971 52 13.811 52.2 A 72.338 72.338 0 0 1 10.322 52.334 Q 9.724 52.343 9.113 52.343 A 87.244 87.244 0 0 1 7.131 52.32 A 16.115 16.115 0 0 1 6.499 52.345 Z" />
        <path id="v" d="M 50.491 49.4 A 12.435 12.435 0 0 1 47.819 45.961 A 16.89 16.89 0 0 1 46.651 43.2 Q 45.551 39.831 45.16 35.31 A 54.196 54.196 0 0 1 45.051 33.8 Q 44.731 28.32 44.891 21.36 Q 45.051 14.4 45.371 5.92 L 45.611 5.12 Q 45.786 4.539 46.235 3.852 A 9.199 9.199 0 0 1 46.611 3.32 A 6.099 6.099 0 0 1 47.555 2.342 Q 48.032 1.941 48.629 1.581 A 10.292 10.292 0 0 1 48.731 1.52 Q 49.763 0.913 51.348 0.72 A 12.363 12.363 0 0 1 52.411 0.64 Q 54.731 0.56 56.091 1.44 Q 57.451 2.32 58.011 3.48 A 9.489 9.489 0 0 1 58.37 4.316 Q 58.524 4.734 58.611 5.116 A 4.759 4.759 0 0 1 58.691 5.56 L 58.811 6.48 A 601.089 601.089 0 0 0 58.829 11.193 Q 58.846 13.412 58.881 15.397 A 360.013 360.013 0 0 0 58.891 15.96 A 302.523 302.523 0 0 0 58.963 18.958 Q 58.997 20.144 59.039 21.225 A 168.823 168.823 0 0 0 59.131 23.28 A 210.036 210.036 0 0 0 59.279 25.865 Q 59.379 27.433 59.491 28.76 Q 59.691 31.12 59.931 32.76 A 36.027 36.027 0 0 0 60.174 34.218 Q 60.321 35 60.491 35.68 A 2.153 2.153 0 0 0 60.73 35.438 Q 61.208 34.886 62.051 33.48 Q 63.131 31.68 64.691 28.76 Q 66.251 25.84 67.931 22.12 A 175.111 175.111 0 0 0 70.241 16.759 A 206.565 206.565 0 0 0 71.291 14.16 Q 72.971 9.92 74.251 5.44 L 74.611 4.64 A 4.411 4.411 0 0 1 74.96 4.018 Q 75.161 3.715 75.43 3.393 A 10.281 10.281 0 0 1 75.891 2.88 A 5.894 5.894 0 0 1 77.106 1.92 A 8.139 8.139 0 0 1 78.331 1.32 A 5.324 5.324 0 0 1 79.416 1.027 Q 80.359 0.87 81.541 0.964 A 13.411 13.411 0 0 1 82.251 1.04 A 13.004 13.004 0 0 1 83.661 1.322 Q 85.158 1.715 86.007 2.416 A 3.582 3.582 0 0 1 86.171 2.56 Q 87.338 3.649 87.673 4.889 A 3.907 3.907 0 0 1 87.691 4.96 A 8.563 8.563 0 0 1 87.851 5.742 Q 87.966 6.5 87.9 7.126 A 3.993 3.993 0 0 1 87.891 7.2 L 87.771 8.16 Q 84.891 17.28 81.651 24.64 A 139.84 139.84 0 0 1 78.605 31.127 Q 77.09 34.139 75.567 36.744 A 83.636 83.636 0 0 1 75.131 37.48 Q 71.851 42.96 68.651 46.44 A 32.116 32.116 0 0 1 66.388 48.683 Q 65.209 49.733 64.07 50.494 A 14.888 14.888 0 0 1 62.531 51.4 Q 59.611 52.88 57.211 52.4 Q 53.09 51.687 50.539 49.442 A 10.55 10.55 0 0 1 50.491 49.4 Z" />
        <path id="i" d="M 89.136 52.079 Q 87.747 51.887 86.931 51.24 Q 85.771 50.32 85.291 49.12 Q 84.924 48.201 84.814 47.447 A 4.458 4.458 0 0 1 84.771 47 L 84.731 46.08 Q 85.051 42.64 85.611 38.68 Q 86.171 34.72 86.971 30.48 Q 87.771 26.24 88.731 21.92 Q 89.691 17.6 90.771 13.4 Q 91.851 9.2 92.971 5.36 L 93.291 4.56 A 5.544 5.544 0 0 1 93.644 3.844 Q 93.845 3.497 94.112 3.13 A 10.557 10.557 0 0 1 94.331 2.84 Q 95.051 1.92 96.411 1.2 A 5.506 5.506 0 0 1 97.662 0.734 Q 98.267 0.583 98.982 0.522 A 12.077 12.077 0 0 1 100.011 0.48 Q 101.521 0.532 102.591 0.872 A 4.905 4.905 0 0 1 103.611 1.32 A 4.826 4.826 0 0 1 104.644 2.129 A 3.897 3.897 0 0 1 105.411 3.28 A 6.996 6.996 0 0 1 105.86 4.691 A 5.871 5.871 0 0 1 105.971 5.64 Q 106.007 6.668 105.885 7.413 A 5.329 5.329 0 0 1 105.851 7.6 L 105.691 8.4 Q 104.731 11.68 103.811 15.4 A 220.817 220.817 0 0 0 102.263 22.124 A 243.076 243.076 0 0 0 102.051 23.12 Q 101.211 27.12 100.451 31.24 Q 99.691 35.36 99.051 39.4 Q 98.411 43.44 97.851 47.12 L 97.531 47.88 Q 97.211 48.64 96.451 49.68 A 5.339 5.339 0 0 1 95.461 50.699 Q 94.982 51.081 94.378 51.412 A 9.207 9.207 0 0 1 94.251 51.48 Q 92.949 52.168 90.86 52.168 A 13.464 13.464 0 0 1 90.411 52.16 A 9.338 9.338 0 0 1 89.136 52.079 Z" />
        <path id="e" d="M 118.731 0.4 L 140.971 0 L 141.891 0.04 Q 142.811 0.08 144.051 0.32 A 7.519 7.519 0 0 1 146.306 1.157 A 8.518 8.518 0 0 1 146.451 1.24 Q 147.611 1.92 148.291 3.12 A 3.678 3.678 0 0 1 148.68 4.168 Q 148.879 5.094 148.731 6.32 A 8.184 8.184 0 0 1 148.301 7.755 Q 147.958 8.592 147.442 9.224 A 4.988 4.988 0 0 1 147.291 9.4 A 7.542 7.542 0 0 1 146.246 10.374 A 5.75 5.75 0 0 1 145.051 11.08 Q 143.851 11.6 143.011 11.72 L 142.171 11.84 L 123.771 11.04 Q 122.731 15.12 122.051 18.12 Q 121.371 21.12 120.851 23.6 Q 120.331 26.08 119.851 28.48 Q 119.371 30.88 118.891 33.72 A 287.527 287.527 0 0 1 118.498 35.991 Q 118.32 36.995 118.118 38.098 A 521.424 521.424 0 0 1 117.691 40.4 Q 120.124 40.02 121.762 39.784 A 176.622 176.622 0 0 1 121.931 39.76 Q 123.086 39.595 124.033 39.468 A 159.642 159.642 0 0 1 124.851 39.36 Q 126.091 39.2 127.291 39 A 60.772 60.772 0 0 0 128.41 38.802 Q 129.174 38.66 130.051 38.48 Q 131.611 38.16 134.091 37.68 L 134.811 37.68 Q 135.295 37.68 135.96 37.77 A 16.881 16.881 0 0 1 136.651 37.88 Q 137.771 38.08 138.891 38.56 Q 140.011 39.04 140.771 39.96 A 3.55 3.55 0 0 1 141.466 41.352 A 4.955 4.955 0 0 1 141.611 42.32 Q 141.771 44.4 141.131 45.76 A 6.325 6.325 0 0 1 140.503 46.827 A 4.602 4.602 0 0 1 139.491 47.84 Q 138.799 48.339 138.222 48.626 A 4.917 4.917 0 0 1 137.731 48.84 L 136.971 49.12 Q 133.131 49.92 129.931 50.56 Q 126.731 51.2 123.771 51.64 A 63.267 63.267 0 0 1 117.849 52.23 A 68.971 68.971 0 0 1 117.651 52.24 Q 114.491 52.4 110.571 52.32 A 18.047 18.047 0 0 1 108.985 52.086 Q 107.335 51.762 106.312 51.164 A 4.743 4.743 0 0 1 106.051 51 A 6.583 6.583 0 0 1 105.099 50.228 Q 104.593 49.726 104.294 49.167 A 3.704 3.704 0 0 1 104.091 48.72 A 6.948 6.948 0 0 1 103.701 47.184 Q 103.648 46.785 103.648 46.391 A 5.924 5.924 0 0 1 103.651 46.2 Q 103.682 45.251 103.689 44.653 A 27.933 27.933 0 0 0 103.691 44.32 Q 104.571 38.64 105.291 34 A 202.532 202.532 0 0 1 106.864 25.136 A 187.577 187.577 0 0 1 106.891 25 A 221.272 221.272 0 0 1 108.116 19.331 A 268.47 268.47 0 0 1 108.971 15.72 Q 110.171 10.8 112.011 4.48 A 4.216 4.216 0 0 1 112.46 3.7 Q 113.029 2.903 114.091 2 A 5.837 5.837 0 0 1 115.767 1.024 Q 117.021 0.535 118.731 0.4 Z M 132.011 30.88 L 108.971 31.76 L 110.651 19.84 L 133.131 18.96 L 133.771 19.12 Q 134.411 19.28 135.371 19.68 Q 136.331 20.08 137.171 20.8 A 4.796 4.796 0 0 1 138.299 22.234 A 5.783 5.783 0 0 1 138.491 22.64 A 3.967 3.967 0 0 1 138.785 23.792 Q 138.843 24.344 138.774 24.968 A 6.936 6.936 0 0 1 138.731 25.28 A 8.984 8.984 0 0 1 138.265 26.714 Q 137.928 27.502 137.458 28.104 A 5.118 5.118 0 0 1 137.171 28.44 A 8.587 8.587 0 0 1 136.211 29.332 Q 135.626 29.795 135.018 30.08 A 5.284 5.284 0 0 1 134.931 30.12 Q 133.771 30.64 132.891 30.76 L 132.011 30.88 Z" />
        <path id="w" d="M 162.859 51.515 A 11.909 11.909 0 0 1 159.331 49.4 Q 156.731 47.12 155.491 43.2 A 31.384 31.384 0 0 1 154.575 39.471 Q 154.094 36.883 153.891 33.8 Q 153.531 28.32 153.731 21.36 Q 153.931 14.4 154.251 5.92 L 154.491 5.12 Q 154.666 4.539 155.115 3.852 A 9.199 9.199 0 0 1 155.491 3.32 A 6.099 6.099 0 0 1 156.435 2.342 Q 156.912 1.941 157.509 1.581 A 10.292 10.292 0 0 1 157.611 1.52 Q 158.643 0.913 160.228 0.72 A 12.363 12.363 0 0 1 161.291 0.64 A 11.784 11.784 0 0 1 161.684 0.633 Q 163.157 0.633 164.191 1.024 A 4.056 4.056 0 0 1 165.011 1.44 A 6.41 6.41 0 0 1 165.99 2.232 A 4.574 4.574 0 0 1 166.891 3.48 A 9.489 9.489 0 0 1 167.25 4.316 Q 167.404 4.734 167.491 5.116 A 4.759 4.759 0 0 1 167.571 5.56 L 167.691 6.48 A 601.089 601.089 0 0 0 167.709 11.193 Q 167.726 13.412 167.761 15.397 A 360.013 360.013 0 0 0 167.771 15.96 A 302.532 302.532 0 0 0 167.843 18.958 Q 167.877 20.144 167.919 21.225 A 168.823 168.823 0 0 0 168.011 23.28 A 210.036 210.036 0 0 0 168.159 25.865 Q 168.259 27.433 168.371 28.76 Q 168.571 31.12 168.811 32.76 A 36.027 36.027 0 0 0 169.054 34.218 Q 169.201 35 169.371 35.68 A 2.153 2.153 0 0 0 169.61 35.438 Q 170.088 34.886 170.931 33.48 Q 172.011 31.68 173.571 28.76 Q 175.131 25.84 176.851 22.08 Q 178.571 18.32 180.211 14.08 Q 181.851 9.84 183.131 5.28 L 183.491 4.52 Q 183.743 3.988 184.269 3.378 A 9.994 9.994 0 0 1 184.771 2.84 A 6.008 6.008 0 0 1 185.899 1.965 Q 186.441 1.634 187.099 1.365 A 10.158 10.158 0 0 1 187.211 1.32 A 5.324 5.324 0 0 1 188.296 1.027 Q 189.239 0.87 190.421 0.964 A 13.411 13.411 0 0 1 191.131 1.04 Q 192.771 1.288 193.87 1.814 A 4.742 4.742 0 0 1 195.011 2.56 A 6.249 6.249 0 0 1 195.84 3.459 Q 196.293 4.067 196.502 4.718 A 3.773 3.773 0 0 1 196.571 4.96 A 8.563 8.563 0 0 1 196.731 5.742 Q 196.846 6.5 196.78 7.126 A 3.993 3.993 0 0 1 196.771 7.2 L 196.651 8.16 Q 193.771 17.28 190.531 24.64 A 139.84 139.84 0 0 1 187.485 31.127 Q 185.97 34.139 184.447 36.744 A 83.636 83.636 0 0 1 184.011 37.48 Q 180.731 42.96 177.531 46.44 A 32.116 32.116 0 0 1 175.268 48.683 Q 174.089 49.733 172.95 50.494 A 14.888 14.888 0 0 1 171.411 51.4 Q 168.491 52.88 166.091 52.4 A 16.492 16.492 0 0 1 162.859 51.515 Z M 194.971 52.4 Q 190.731 51.68 188.171 49.4 Q 185.611 47.12 184.371 43.2 A 32.369 32.369 0 0 1 183.447 39.471 Q 183.079 37.53 182.861 35.31 A 59.908 59.908 0 0 1 182.731 33.8 Q 182.331 28.32 182.531 21.36 Q 182.731 14.4 183.051 5.92 L 183.451 5.12 A 5.47 5.47 0 0 1 183.815 4.506 Q 184.025 4.195 184.301 3.86 A 12.772 12.772 0 0 1 184.771 3.32 Q 185.691 2.32 187.251 1.6 A 6.739 6.739 0 0 1 188.872 1.099 Q 189.867 0.918 191.051 0.96 Q 192.491 1.04 193.571 2 Q 194.651 2.96 195.331 4.24 Q 195.852 5.22 196.185 6.012 A 12.891 12.891 0 0 1 196.371 6.48 L 196.731 7.44 Q 196.651 12.72 196.731 16.8 Q 196.811 20.88 196.931 23.88 A 138.162 138.162 0 0 0 197.033 26.017 Q 197.091 27.072 197.162 28.005 A 72.552 72.552 0 0 0 197.251 29.08 Q 197.405 30.764 197.581 32.074 A 41.714 41.714 0 0 0 197.691 32.84 Q 197.931 34.4 198.171 35.68 Q 198.567 35.35 199.398 34.069 A 37.624 37.624 0 0 0 199.771 33.48 A 46.66 46.66 0 0 0 200.589 32.11 Q 201.414 30.676 202.411 28.76 A 134.372 134.372 0 0 0 203.956 25.692 Q 204.752 24.062 205.597 22.238 A 217.616 217.616 0 0 0 205.651 22.12 A 129.432 129.432 0 0 0 208.083 16.504 A 151.076 151.076 0 0 0 209.011 14.16 Q 210.651 9.92 211.931 5.44 L 212.291 4.64 Q 212.553 4.059 213.11 3.393 A 10.281 10.281 0 0 1 213.571 2.88 Q 214.491 1.92 216.051 1.32 A 5.71 5.71 0 0 1 217.294 1.004 Q 218.46 0.837 219.931 1.04 Q 221.571 1.288 222.67 1.814 A 4.742 4.742 0 0 1 223.811 2.56 A 6.516 6.516 0 0 1 224.667 3.487 Q 225.143 4.123 225.364 4.805 A 3.997 3.997 0 0 1 225.411 4.96 A 7.325 7.325 0 0 1 225.582 5.706 Q 225.711 6.463 225.628 7.088 A 3.42 3.42 0 0 1 225.611 7.2 L 225.451 8.16 Q 222.571 17.28 219.331 24.64 A 139.84 139.84 0 0 1 216.285 31.127 Q 214.77 34.139 213.247 36.744 A 83.636 83.636 0 0 1 212.811 37.48 Q 209.531 42.96 206.331 46.44 A 32.116 32.116 0 0 1 204.068 48.683 Q 202.889 49.733 201.75 50.494 A 14.888 14.888 0 0 1 200.211 51.4 A 12.085 12.085 0 0 1 198.606 52.081 Q 197.308 52.518 196.144 52.518 A 5.772 5.772 0 0 1 194.971 52.4 Z" />
        <g id="lview">
            <use href="#l" />
            <use href="#v" transform="translate(-3, 0)" />
            <use href="#i" transform="translate(-3, 0)"/>
            <use href="#e" transform="translate(-3, 0)" />
            <use href="#w" transform="translate(-5, 0)" />
        </g>
    </defs>
    <g transform="scale(0.3) translate(35, 25)">
        <use href="#lview" style="stroke:#ffed00;stroke-width:18" />
        <use href="#lview" style="stroke:#000;stroke-width:10" />
        <use href="#lview" style="fill:#fff" />
    </g>
</svg>